<?xml version="1.0" encoding="iso-8859-1"?>
<!-- Generator: Adobe Illustrator 19.0.0, SVG Export Plug-In . SVG Version: 6.00 Build 0)  -->
<svg version="1.1" id="Capa_1" xmlns="http://www.w3.org/2000/svg" xmlns:xlink="http://www.w3.org/1999/xlink" x="0px" y="0px"
	 viewBox="0 0 512.002 512.002" style="enable-background:new 0 0 512.002 512.002;" xml:space="preserve">
<g>
	<g>
		<path d="M145.798,500.849c-0.115-0.21-11.797-21.193-25.524-48.67c-1.851-3.706-6.356-5.211-10.061-3.357
			c-3.706,1.851-5.209,6.355-3.358,10.061c13.888,27.801,25.725,49.06,25.843,49.271c1.373,2.461,3.926,3.848,6.557,3.848
			c1.236,0,2.49-0.306,3.646-0.951C146.519,509.034,147.816,504.466,145.798,500.849z"/>
	</g>
</g>
<g>
	<g>
		<path d="M424.57,301.961h-17.622c-1.184-3.979-2.608-7.903-4.268-11.698c-5.435-12.418-13.189-23.475-23.046-32.86
			c-2.626-2.504-5.142-5.118-7.487-7.781c-8.517-9.629-15.567-20.541-20.956-32.435c-1.709-3.774-6.155-5.443-9.927-3.737
			c-3.773,1.71-5.446,6.154-3.736,9.927c4.385,9.679,9.773,18.772,16.052,27.158c-44.596,12.581-84.301,18.966-118.14,18.966
			c-33.974,0-73.687-6.37-118.16-18.921c19.073-25.428,29.47-56.831,29.47-89.65v-13.564h142.07c9.649,0,17.5-7.851,17.5-17.5
			V92.197c0-9.649-7.851-17.5-17.5-17.5H146.75V48.5h113.513c4.142,0,7.5-3.357,7.5-7.5s-3.358-7.5-7.5-7.5H118.11
			c-14.336,0-26-11.663-26-26c0-4.143-3.358-7.5-7.5-7.5c-4.142,0-7.5,3.357-7.5,7.5c0,22.607,18.393,41,41,41h13.638v26.197H87.433
			c-17.704,0-32.106,14.402-32.106,32.105c0,0,0.052,57.743,0.151,58.228c1.558,16.261,15.293,29.021,31.955,29.021h40.301
			c-5.11,20.66-14.993,39.751-29.037,55.612c-2.348,2.659-4.856,5.262-7.452,7.736c-20.331,19.369-31.527,45.493-31.527,73.56
			c0,6.972,1.484,15.666,4.539,26.586c5.043,17.976,14.369,41.688,27.717,70.48c1.269,2.737,3.979,4.348,6.809,4.348
			c1.056,0,2.129-0.225,3.149-0.697c3.758-1.742,5.392-6.201,3.65-9.959c-10.745-23.176-18.776-42.856-23.968-58.698h3.444
			c59.807,0,114.375,32.574,142.88,85.116V504.5c0,4.143,3.358,7.5,7.5,7.5c4.142,0,7.5-3.357,7.5-7.5v-56.388
			c17.904-32.978,46.756-58.891,81.441-73.073c0.292-0.119,0.567-0.26,0.835-0.41h59.993
			c-19.885,53.824-59.71,125.464-60.13,126.219c-2.017,3.617-0.72,8.186,2.897,10.202c1.157,0.646,2.41,0.951,3.646,0.951
			c2.631,0,5.185-1.387,6.557-3.848c1.318-2.364,24.079-43.306,43.833-86.838h42.558c16.66,0,30.393-12.757,31.955-29.014
			c0.099-0.487,0.152-58.235,0.152-58.235C456.676,316.363,442.273,301.961,424.57,301.961z M70.327,106.803
			c0-9.432,7.674-17.105,17.106-17.105h201.386c1.378,0,2.5,1.121,2.5,2.5v37.668c0,1.379-1.122,2.5-2.5,2.5h-18.88V116.37
			c0-4.143-3.358-7.5-7.5-7.5c-4.142,0-7.5,3.357-7.5,7.5v15.996h-15.984V116.37c0-4.143-3.358-7.5-7.5-7.5
			c-4.142,0-7.5,3.357-7.5,7.5v15.996h-15.983V116.37c0-4.143-3.358-7.5-7.5-7.5c-4.142,0-7.5,3.357-7.5,7.5v15.996h-15.984V116.37
			c0-4.143-3.358-7.5-7.5-7.5c-4.142,0-7.5,3.357-7.5,7.5v15.996h-15.983V116.37c0-4.143-3.358-7.5-7.5-7.5
			c-4.142,0-7.5,3.357-7.5,7.5v15.996h-15.984V116.37c0-4.143-3.358-7.5-7.5-7.5c-4.142,0-7.5,3.357-7.5,7.5v15.996H87.433
			c-6.292,0-12.156,1.787-17.106,4.893V106.803z M87.433,179.052c-9.014,0-16.404-7.012-17.044-15.866
			c0.665-8.918,8.022-15.82,17.044-15.82h44.315v13.564c0,6.109-0.402,12.161-1.185,18.122H87.433z M235.443,431.212
			c-32.367-51.635-88.844-83.192-150.385-83.192h-7.786c-1.687-6.929-2.554-12.665-2.554-17.06c0-23.922,9.544-46.189,26.874-62.7
			c1.743-1.661,3.443-3.378,5.097-5.124c48.433,14.164,91.738,21.364,128.75,21.364c36.861,0,80.155-7.213,128.714-21.403
			c1.659,1.754,3.37,3.484,5.134,5.165c8.408,8.007,15.02,17.433,19.651,28.015c0.815,1.862,1.556,3.763,2.239,5.685H223.184
			c-9.649,0-17.5,7.851-17.5,17.5v37.668c0,9.649,7.851,17.5,17.5,17.5h69.146C269.4,388.87,249.885,408.225,235.443,431.212z
			 M424.57,406.315h-35.929c4.655-10.841,8.951-21.586,12.516-31.687h23.413c9.021,0,16.378,6.902,17.044,15.82
			C440.974,399.303,433.584,406.315,424.57,406.315z M441.676,364.521c-4.951-3.105-10.815-4.893-17.106-4.893h-12.587v-15.996
			c0-4.143-3.358-7.5-7.5-7.5c-4.142,0-7.5,3.357-7.5,7.5v15.996h-15.984v-15.996c0-4.143-3.358-7.5-7.5-7.5
			c-4.142,0-7.5,3.357-7.5,7.5v15.996h-15.983v-15.996c0-4.143-3.358-7.5-7.5-7.5c-4.142,0-7.5,3.357-7.5,7.5v15.996h-15.985
			v-15.996c0-4.143-3.358-7.5-7.5-7.5c-4.142,0-7.5,3.357-7.5,7.5v15.996h-15.983v-15.996c0-4.143-3.358-7.5-7.5-7.5
			c-4.142,0-7.5,3.357-7.5,7.5v15.996h-15.984v-15.996c0-4.143-3.358-7.5-7.5-7.5c-4.142,0-7.5,3.357-7.5,7.5v15.996h-18.88
			c-1.378,0-2.5-1.121-2.5-2.5V319.46c0-1.379,1.122-2.5,2.5-2.5H424.57c9.432,0.001,17.106,7.675,17.106,17.106V364.521z"/>
	</g>
</g>
<g>
	<g>
		<path d="M235.82,207.674c-4.142,0-7.5,3.357-7.5,7.5v9c0,4.143,3.358,7.5,7.5,7.5c4.142,0,7.5-3.357,7.5-7.5v-9
			C243.32,211.031,239.962,207.674,235.82,207.674z"/>
	</g>
</g>
<g>
	<g>
		<path d="M385.819,0c-4.142,0-7.5,3.357-7.5,7.5c0,14.337-11.664,26-26,26h-56.65c-4.142,0-7.5,3.357-7.5,7.5s3.357,7.5,7.499,7.5
			h28.46v112.43c0,9.405,0.88,18.874,2.615,28.141c0.675,3.605,3.824,6.121,7.364,6.121c0.458,0,0.922-0.042,1.389-0.129
			c4.071-0.763,6.754-4.681,5.992-8.752c-1.565-8.359-2.359-16.899-2.359-25.381V48.5h13.19c22.607,0,41-18.393,41-41
			C393.319,3.357,389.961,0,385.819,0z"/>
	</g>
</g>
<g>
</g>
<g>
</g>
<g>
</g>
<g>
</g>
<g>
</g>
<g>
</g>
<g>
</g>
<g>
</g>
<g>
</g>
<g>
</g>
<g>
</g>
<g>
</g>
<g>
</g>
<g>
</g>
<g>
</g>
</svg>
