<?xml version="1.0" standalone="no"?>
<!DOCTYPE svg PUBLIC "-//W3C//DTD SVG 20010904//EN"
 "http://www.w3.org/TR/2001/REC-SVG-20010904/DTD/svg10.dtd">
<svg version="1.0" xmlns="http://www.w3.org/2000/svg"
 width="245.000000pt" height="68.000000pt" viewBox="0 0 245.000000 68.000000"
 preserveAspectRatio="xMidYMid meet">
<metadata>
Created by potrace 1.15, written by Peter Selinger 2001-2017
</metadata>
<g transform="translate(0.000000,68.000000) scale(0.100000,-0.100000)"
fill="#000000" stroke="none">
<path d="M22 450 c4 -142 21 -162 28 -33 l5 88 14 -40 c8 -22 25 -64 38 -94
29 -67 37 -62 79 52 l29 79 5 -86 c8 -131 25 -111 28 32 2 112 1 122 -16 122
-13 0 -27 -25 -57 -105 l-39 -104 -40 104 c-31 82 -43 105 -58 105 -17 0 -18
-8 -16 -120z"/>
<path d="M305 465 c-37 -36 -34 -86 6 -119 17 -14 35 -26 40 -26 19 0 67 30
73 45 21 57 -16 125 -69 125 -14 0 -37 -11 -50 -25z"/>
<path d="M590 465 c-61 -65 14 -178 87 -130 26 17 40 42 29 52 -4 4 -13 -3
-22 -15 -18 -26 -56 -29 -78 -6 -28 27 -18 34 49 34 70 0 74 4 50 49 -24 48
-78 56 -115 16z"/>
<path d="M865 465 c-37 -36 -34 -86 6 -119 17 -14 35 -26 40 -26 19 0 67 30
73 45 21 57 -16 125 -69 125 -14 0 -37 -11 -50 -25z"/>
<path d="M1310 465 c-61 -65 14 -178 87 -130 26 17 40 42 29 52 -4 4 -13 -3
-22 -15 -18 -26 -56 -29 -78 -6 -28 27 -18 34 49 34 70 0 74 4 50 49 -24 48
-78 56 -115 16z"/>
<path d="M1640 150 c0 -33 4 -60 10 -60 6 0 10 6 10 13 1 13 70 50 70 36 0 -4
10 -11 22 -15 16 -5 27 -1 40 16 18 22 18 22 18 1 0 -12 5 -21 10 -21 6 0 10
16 10 35 0 28 4 35 20 35 16 0 20 -7 20 -35 0 -19 5 -35 10 -35 6 0 10 9 10
21 0 21 0 21 18 -1 13 -17 24 -21 40 -16 12 4 22 12 22 19 0 6 7 2 15 -9 13
-18 14 -17 15 19 0 30 4 37 20 37 16 0 20 -7 20 -35 0 -19 5 -35 11 -35 6 0 9
17 7 43 -3 41 -4 42 -40 45 -26 2 -38 -1 -38 -9 0 -10 -3 -10 -12 -1 -18 18
-55 15 -67 -5 -10 -17 -10 -17 -11 0 0 13 -9 17 -40 17 -31 0 -40 -4 -40 -17
-1 -17 -1 -17 -11 0 -12 20 -49 23 -68 5 -11 -10 -14 -10 -18 0 -3 6 -20 12
-39 12 l-34 0 0 -60z"/>
</g>
</svg>
